<svg width="296" height="48" viewBox="0 0 296 48" fill="none" xmlns="http://www.w3.org/2000/svg">
<path d="M21.613 47.512C10.285 47.512 2.797 40.984 2.797 31.064V9.432C2.797 8.28 2.157 7.832 1.517 7.32C0.877 6.808 0.237 6.296 0.237 5.272C0.237 4.184 1.069 3.48 2.221 3.48H14.701C15.981 3.48 16.749 4.184 16.749 5.272C16.749 6.296 16.109 6.808 15.469 7.32C14.829 7.832 14.189 8.28 14.189 9.432V33.048C14.189 39 18.349 42.904 24.557 42.904C31.085 42.904 35.373 38.552 35.373 31.96V11.608C35.373 9.048 34.029 8.088 32.749 7.32C31.789 6.68 31.149 6.232 31.149 5.272C31.149 4.184 31.981 3.48 33.197 3.48H39.917C41.069 3.48 41.901 4.184 41.901 5.272C41.901 6.232 41.325 6.744 40.749 7.256C40.045 7.896 39.341 8.536 39.341 9.944V32.664C39.341 41.624 32.301 47.512 21.613 47.512ZM46.7685 47C45.6805 47 44.9125 46.296 44.9125 45.336C44.9125 44.376 45.4885 43.928 46.0645 43.48C46.7685 42.968 47.2805 42.456 47.2805 41.432V20.12C47.2805 18.968 46.7045 18.456 46.0645 18.008C45.4885 17.56 44.9125 17.112 44.9125 16.088C44.9125 15.128 45.6805 14.36 46.7045 14.36H55.4725C56.9445 14.36 57.9045 15.32 57.9045 16.856V19.032C60.6565 15.704 64.5605 13.72 68.9125 13.72C74.7365 13.72 78.9605 17.24 78.9605 23.448V41.432C78.9605 42.456 79.4725 42.968 80.1765 43.48C80.7525 43.928 81.3285 44.376 81.3285 45.336C81.3285 46.296 80.5605 47 79.4725 47H67.7605C66.6725 47 65.9685 46.296 65.9685 45.336C65.9685 44.376 66.5445 43.928 67.1205 43.48C67.7605 42.968 68.3365 42.456 68.3365 41.432V23.768C68.3365 21.08 66.4165 19.224 63.7285 19.224C61.3605 19.224 59.3125 20.632 57.9045 22.872V41.432C57.9045 42.456 58.4805 42.968 59.1205 43.48C59.6965 43.928 60.2725 44.376 60.2725 45.336C60.2725 46.296 59.5685 47 58.4805 47H46.7685ZM91.524 10.84C88.004 10.84 85.636 8.664 85.636 5.528C85.636 2.392 88.004 0.279999 91.524 0.279999C95.044 0.279999 97.412 2.392 97.412 5.528C97.412 8.664 95.044 10.84 91.524 10.84ZM85.956 47C84.868 47 84.1 46.296 84.1 45.336C84.1 44.376 84.676 43.928 85.252 43.48C85.956 42.968 86.468 42.456 86.468 41.432V20.12C86.468 18.968 85.892 18.456 85.252 18.008C84.676 17.56 84.1 17.112 84.1 16.088C84.1 15.128 84.868 14.36 85.892 14.36H94.66C96.132 14.36 97.092 15.32 97.092 16.856V41.432C97.092 42.456 97.668 42.968 98.308 43.48C98.884 43.928 99.46 44.376 99.46 45.336C99.46 46.296 98.756 47 97.668 47H85.956ZM119.184 47.64C109.072 47.64 102.352 40.984 102.352 30.68C102.352 20.504 109.2 13.72 119.184 13.72C126.736 13.72 132.56 17.624 132.56 22.488C132.56 25.176 130.768 26.648 127.952 26.648C124.048 26.648 123.152 23.896 122.32 21.144C121.616 18.904 120.912 16.856 118.288 16.856C114.768 16.856 112.912 21.016 112.912 25.752C112.912 31.704 115.536 40.536 123.152 40.536C126.608 40.536 128.336 38.808 129.616 37.4C130.384 36.504 130.96 35.928 131.728 35.928C132.496 35.928 133.007 36.376 133.007 37.976C133.007 43.096 127.44 47.64 119.184 47.64ZM154.123 47C153.163 47 152.459 46.488 152.459 45.528C152.459 44.504 153.099 44.056 153.739 43.608C154.379 43.16 155.019 42.648 155.019 41.688V8.792C155.019 7.768 154.379 7.32 153.739 6.872C153.099 6.424 152.459 5.912 152.459 4.952C152.459 3.992 153.163 3.48 154.123 3.48H172.747C181.963 3.48 188.043 9.048 188.043 17.688C188.043 26.456 181.835 32.024 171.659 32.024H161.035V41.688C161.035 42.648 161.803 43.096 162.571 43.544C163.339 43.992 163.979 44.504 163.979 45.528C163.979 46.488 163.339 47 162.315 47H154.123ZM171.019 6.36H161.035V26.968C164.043 28.568 167.947 29.336 170.699 29.336C178.379 29.336 182.027 25.048 182.027 19.224C182.027 13.336 178.251 6.36 171.019 6.36ZM203.064 47.64C196.408 47.64 191.992 44.184 191.992 38.872C191.992 31.256 200.76 28.184 214.008 28.056V24.6C214.008 19.032 210.616 16.088 205.624 16.088C200.888 16.088 199.992 18.712 199.352 21.016C198.84 22.872 198.392 24.408 196.088 24.408C194.296 24.408 193.208 23.384 193.208 21.656C193.208 18.136 197.624 13.72 206.072 13.72C214.008 13.72 219.64 17.624 219.64 25.368V42.008C219.64 43.224 220.344 43.736 221.048 44.248C221.624 44.632 222.136 45.016 222.136 45.848C222.136 47 220.664 47.64 218.808 47.64C215.8 47.64 214.008 45.848 214.008 43.352C211.448 46.04 207.608 47.64 203.064 47.64ZM197.56 37.784C197.56 41.752 201.208 44.376 205.688 44.376C209.016 44.376 212.152 42.904 214.008 40.536V31.384C212.664 30.872 211.192 30.68 209.272 30.68C202.36 30.68 197.56 33.304 197.56 37.784ZM228.286 47C227.391 47 226.751 46.488 226.751 45.656C226.751 44.76 227.327 44.376 227.903 43.992C228.543 43.544 229.119 43.096 229.119 42.136V19.8C229.119 18.584 228.415 18.072 227.775 17.624C227.199 17.176 226.623 16.728 226.623 15.832C226.623 15 227.263 14.36 228.159 14.36H232.639C233.919 14.36 234.751 15.256 234.751 16.6V19.928C237.055 16.024 240.319 13.72 243.839 13.72C246.655 13.72 248.447 15.192 248.447 17.304C248.447 19.16 247.039 20.504 244.927 20.504C243.903 20.504 243.071 20.184 242.303 19.736C241.535 19.288 240.831 18.968 239.935 18.968C238.015 18.968 236.095 20.376 234.751 24.024V42.136C234.751 43.096 235.455 43.544 236.159 43.928C236.799 44.312 237.503 44.76 237.503 45.656C237.503 46.488 236.863 47 235.967 47H228.286ZM257.363 9.176C255.123 9.176 253.651 7.704 253.651 5.528C253.651 3.352 255.123 1.88 257.363 1.88C259.603 1.88 261.075 3.352 261.075 5.528C261.075 7.704 259.603 9.176 257.363 9.176ZM254.099 47C253.203 47 252.563 46.488 252.563 45.656C252.563 44.76 253.139 44.376 253.715 43.992C254.355 43.544 254.931 43.096 254.931 42.136V19.8C254.931 18.584 254.227 18.072 253.587 17.624C253.011 17.176 252.435 16.728 252.435 15.832C252.435 15 253.075 14.36 253.971 14.36H258.451C259.731 14.36 260.563 15.256 260.563 16.6V42.136C260.563 43.096 261.139 43.544 261.779 43.992C262.355 44.376 262.931 44.76 262.931 45.656C262.931 46.488 262.355 47 261.459 47H254.099ZM281.822 47.64C273.374 47.64 267.998 43.48 267.998 39.576C267.998 37.912 268.958 36.888 270.686 36.888C272.798 36.888 273.438 38.36 274.142 40.152C275.102 42.584 276.446 45.4 281.95 45.4C286.942 45.4 290.27 43.032 290.27 39.384C290.27 35.16 285.662 33.944 280.734 32.664C275.038 31.192 268.894 29.592 268.894 23.064C268.894 17.176 273.758 13.72 281.885 13.72C288.926 13.72 294.11 16.664 294.11 20.952C294.11 22.744 293.086 23.384 291.742 23.384C289.886 23.384 289.31 22.104 288.67 20.568C287.774 18.456 286.686 15.96 281.694 15.96C276.958 15.96 274.078 18.2 274.078 21.464C274.078 25.752 278.686 27.032 283.678 28.312C289.374 29.784 295.454 31.576 295.454 37.976C295.454 44.184 289.822 47.64 281.822 47.64Z" fill="white"/>
</svg>
