<svg width="430" height="72" viewBox="0 0 430 72" fill="none" xmlns="http://www.w3.org/2000/svg">
<path d="M33.7544 71.96C16.2824 71.96 4.76238 61.88 4.76238 46.616V14.936C4.76238 13.208 3.80238 12.44 2.84238 11.672C1.88238 10.904 0.922375 10.136 0.922375 8.6C0.922375 6.776 2.17038 5.72 3.99438 5.72H24.9224C26.8424 5.72 28.1864 6.776 28.1864 8.6C28.1864 10.136 27.2264 10.904 26.2664 11.672C25.3064 12.44 24.3464 13.208 24.3464 14.936V50.36C24.3464 58.712 30.1064 64.28 38.8424 64.28C48.1544 64.28 54.2984 57.944 54.2984 48.44V18.776C54.2984 14.456 52.0904 12.92 49.9784 11.672C48.5384 10.712 47.5784 10.04 47.5784 8.6C47.5784 6.776 48.8264 5.72 50.7464 5.72H61.4024C63.3224 5.72 64.6664 6.776 64.6664 8.6C64.6664 10.04 63.8024 10.808 62.9384 11.576C61.8824 12.536 60.8264 13.592 60.8264 15.896V49.496C60.8264 63.032 49.9784 71.96 33.7544 71.96ZM70.8156 71C69.0876 71 67.9356 69.944 67.9356 68.312C67.9356 66.872 68.7996 66.2 69.6636 65.528C70.7196 64.664 71.4876 63.896 71.4876 62.36V30.872C71.4876 29.144 70.6236 28.376 69.6636 27.704C68.7996 27.032 67.9356 26.36 67.9356 24.824C67.9356 23.288 69.0876 22.04 70.8156 22.04H85.8876C88.2876 22.04 89.7276 23.48 89.7276 25.88V28.664C93.7596 23.96 99.4236 21.08 105.76 21.08C114.304 21.08 120.64 26.264 120.64 35.672V62.36C120.64 63.896 121.408 64.664 122.464 65.528C123.328 66.2 124.192 66.872 124.192 68.312C124.192 69.944 123.04 71 121.312 71H101.728C99.9996 71 98.8476 69.944 98.8476 68.312C98.8476 66.872 99.7116 66.2 100.576 65.528C101.632 64.664 102.4 63.896 102.4 62.36V36.152C102.4 32.6 99.9996 30.296 96.6396 30.296C93.8556 30.296 91.4556 31.928 89.7276 34.52V62.36C89.7276 63.896 90.4956 64.664 91.5516 65.528C92.4156 66.2 93.2796 66.872 93.2796 68.312C93.2796 69.944 92.1276 71 90.3996 71H70.8156ZM139.851 17.432C133.995 17.432 129.963 13.976 129.963 8.792C129.963 3.608 133.995 0.151997 139.851 0.151997C145.707 0.151997 149.547 3.608 149.547 8.792C149.547 13.976 145.707 17.432 139.851 17.432ZM130.347 71C128.619 71 127.467 69.944 127.467 68.312C127.467 66.872 128.331 66.2 129.195 65.528C130.251 64.664 131.019 63.896 131.019 62.36V30.872C131.019 29.144 130.155 28.376 129.195 27.704C128.331 27.032 127.467 26.36 127.467 24.824C127.467 23.288 128.619 22.04 130.347 22.04H145.419C147.819 22.04 149.259 23.48 149.259 25.88V62.36C149.259 63.896 150.027 64.664 151.083 65.528C151.947 66.2 152.811 66.872 152.811 68.312C152.811 69.944 151.659 71 149.931 71H130.347ZM181.789 71.96C166.429 71.96 156.253 61.88 156.253 46.52C156.253 31.16 166.717 21.08 181.885 21.08C193.213 21.08 202.333 26.84 202.333 34.52C202.333 38.936 199.261 41.336 194.557 41.336C188.029 41.336 186.589 36.632 185.245 32.216C184.285 28.952 183.325 26.072 180.349 26.072C176.125 26.072 174.301 31.832 174.301 37.88C174.301 46.04 177.757 59.864 188.797 59.864C193.213 59.864 195.613 57.752 197.437 55.832C198.781 54.488 199.645 53.624 200.893 53.624C202.141 53.624 203.101 54.392 203.101 56.984C203.101 65.624 193.981 71.96 181.789 71.96ZM212.441 71C210.905 71 209.753 70.136 209.753 68.6C209.753 67.064 210.713 66.392 211.673 65.72C212.633 64.952 213.593 64.184 213.593 62.744V13.976C213.593 12.44 212.633 11.768 211.673 11C210.713 10.328 209.753 9.56 209.753 8.12C209.753 6.584 210.905 5.72 212.441 5.72H241.049C255.449 5.72 264.953 14.072 264.953 27.128C264.953 40.28 255.353 48.92 239.801 48.92H225.305V62.744C225.305 64.184 226.457 64.952 227.609 65.624C228.761 66.296 229.721 67.064 229.721 68.6C229.721 70.136 228.761 71 227.033 71H212.441ZM237.209 10.616H225.305V40.664C229.241 42.968 234.233 44.312 238.073 44.312C248.345 44.312 253.241 38.168 253.241 30.008C253.241 21.56 247.961 10.616 237.209 10.616ZM286.213 71.96C276.613 71.96 270.085 66.872 270.085 58.904C270.085 47.192 283.909 42.776 301.957 42.584V36.728C301.957 28.76 297.445 25.016 291.013 25.016C284.773 25.016 283.525 28.664 282.661 32.12C281.893 35.192 281.221 37.976 276.997 37.976C273.733 37.976 271.909 36.056 271.909 33.176C271.909 27.416 279.013 21.08 291.877 21.08C304.069 21.08 312.901 26.744 312.901 38.744V63.224C312.901 64.952 313.957 65.816 315.013 66.488C315.877 67.16 316.645 67.736 316.645 68.888C316.645 70.904 313.957 71.96 310.693 71.96C305.893 71.96 302.821 69.56 302.149 65.72C298.309 69.656 292.741 71.96 286.213 71.96ZM280.837 56.6C280.837 62.168 285.733 65.912 291.877 65.912C295.909 65.912 299.653 64.28 301.957 61.592V48.056C300.229 47.192 298.213 46.904 295.717 46.904C286.981 46.904 280.837 50.456 280.837 56.6ZM324.999 71C323.559 71 322.503 70.136 322.503 68.792C322.503 67.448 323.367 66.872 324.231 66.2C325.287 65.528 326.055 64.856 326.055 63.32V30.392C326.055 28.568 325.095 27.8 324.135 27.128C323.271 26.456 322.407 25.784 322.407 24.344C322.407 23.096 323.463 22.04 324.807 22.04H333.735C335.751 22.04 336.999 23.384 336.999 25.496V30.2C340.263 24.536 345.063 21.08 350.247 21.08C354.663 21.08 357.831 23.48 357.831 27.416C357.831 30.872 355.431 33.368 351.783 33.368C349.671 33.368 348.231 32.504 346.983 31.352C345.927 30.488 344.967 29.816 343.719 29.816C341.319 29.816 338.727 31.736 336.999 36.536V63.32C336.999 64.856 338.055 65.528 339.207 66.104C340.167 66.68 341.319 67.352 341.319 68.792C341.319 70.136 340.263 71 338.823 71H324.999ZM371.547 15.128C367.515 15.128 364.923 12.536 364.923 8.792C364.923 5.048 367.515 2.55199 371.547 2.55199C375.579 2.55199 378.171 5.048 378.171 8.792C378.171 12.536 375.579 15.128 371.547 15.128ZM365.499 71C364.059 71 363.003 70.136 363.003 68.792C363.003 67.448 363.867 66.872 364.731 66.2C365.787 65.528 366.555 64.856 366.555 63.32V30.392C366.555 28.568 365.595 27.8 364.635 27.128C363.771 26.456 362.907 25.784 362.907 24.344C362.907 23.096 363.963 22.04 365.307 22.04H374.235C376.251 22.04 377.499 23.384 377.499 25.496V63.32C377.499 64.856 378.363 65.528 379.323 66.2C380.187 66.872 381.051 67.448 381.051 68.792C381.051 70.136 380.187 71 378.747 71H365.499ZM408.681 71.96C396.009 71.96 387.657 66.2 387.657 59.96C387.657 57.176 389.289 55.448 392.265 55.448C395.817 55.448 396.969 57.944 398.217 60.728C399.753 64.28 401.673 68.216 408.969 68.216C415.401 68.216 419.721 65.048 419.721 60.248C419.721 54.392 413.385 52.472 406.281 50.456C397.929 47.864 388.905 45.08 388.905 35.288C388.905 26.36 396.201 21.08 408.873 21.08C420.201 21.08 427.593 25.592 427.593 31.928C427.593 34.712 425.865 35.96 423.465 35.96C420.297 35.96 419.145 33.752 418.089 31.256C416.745 28.184 415.113 24.824 408.681 24.824C402.537 24.824 398.889 27.704 398.889 32.024C398.889 37.88 405.225 39.992 412.329 42.104C420.681 44.6 429.705 47.672 429.705 57.272C429.705 66.68 421.353 71.96 408.681 71.96Z" fill="#F5FCFB"/>
</svg>
