<svg width="195" height="195" viewBox="0 0 195 195" fill="none" xmlns="http://www.w3.org/2000/svg">
<g filter="url(#filter0_d_623_13)">
<path d="M179.128 85.3974C187.081 91.5824 187.081 103.601 179.128 109.786V109.786C173.668 114.033 171.696 121.392 174.302 127.799V127.799C178.096 137.132 172.087 147.541 162.107 148.921V148.921C155.255 149.868 149.868 155.255 148.921 162.107V162.107C147.541 172.087 137.132 178.096 127.799 174.302V174.302C121.392 171.696 114.033 173.668 109.786 179.128V179.128C103.601 187.081 91.5824 187.081 85.3974 179.128V179.128C81.1508 173.668 73.7922 171.696 67.3844 174.302V174.302C58.0519 178.096 47.6431 172.087 46.263 162.107V162.107C45.3153 155.255 39.9284 149.868 33.0765 148.921V148.921C23.0972 147.541 17.0876 137.132 20.882 127.799V127.799C23.4873 121.392 21.5156 114.033 16.0555 109.786V109.786C8.10319 103.601 8.10319 91.5824 16.0555 85.3974V85.3974C21.5156 81.1507 23.4873 73.7922 20.882 67.3844V67.3844C17.0876 58.0519 23.0972 47.6431 33.0765 46.2629V46.2629C39.9284 45.3153 45.3153 39.9284 46.263 33.0765V33.0765C47.6431 23.0971 58.0519 17.0876 67.3844 20.882V20.882C73.7922 23.4873 81.1508 21.5156 85.3974 16.0555V16.0555C91.5824 8.10318 103.601 8.10318 109.786 16.0555V16.0555C114.033 21.5156 121.392 23.4873 127.799 20.882V20.882C137.132 17.0876 147.541 23.0972 148.921 33.0765V33.0765C149.868 39.9284 155.255 45.3153 162.107 46.2629V46.2629C172.087 47.6431 178.096 58.0519 174.302 67.3844V67.3844C171.696 73.7922 173.668 81.1508 179.128 85.3974V85.3974Z" fill="#99E1D9"/>
<path d="M172.217 66.537C169.233 73.878 171.492 82.3083 177.747 87.1735C184.541 92.4576 184.541 102.726 177.747 108.01C171.492 112.875 169.233 121.306 172.217 128.647C175.459 136.62 170.325 145.513 161.799 146.692C153.949 147.778 147.778 153.949 146.692 161.799C145.513 170.325 136.62 175.459 128.647 172.217C121.306 169.233 112.875 171.492 108.01 177.747C102.726 184.541 92.4576 184.541 87.1735 177.747C82.3083 171.492 73.878 169.233 66.537 172.217C58.5637 175.459 49.6709 170.325 48.4917 161.799C47.4061 153.949 41.2346 147.778 33.3848 146.692C24.8588 145.513 19.7246 136.62 22.9663 128.647C25.9511 121.306 23.6922 112.875 17.4368 108.01C10.6427 102.726 10.6427 92.4576 17.4368 87.1735C23.6922 82.3083 25.9511 73.878 22.9664 66.5369C19.7246 58.5637 24.8589 49.6709 33.3848 48.4917C41.2346 47.4061 47.4061 41.2346 48.4917 33.3847C49.6709 24.8588 58.5637 19.7246 66.537 22.9663C73.878 25.9511 82.3083 23.6922 87.1735 17.4368C92.4576 10.6427 102.726 10.6427 108.01 17.4368C112.875 23.6922 121.306 25.9511 128.647 22.9663C136.62 19.7246 145.513 24.8588 146.692 33.3848C147.778 41.2346 153.949 47.4061 161.799 48.4917C170.325 49.6709 175.459 58.5637 172.217 66.537Z" stroke="white" stroke-width="4.5"/>
</g>
<mask id="path-3-outside-1_623_13" maskUnits="userSpaceOnUse" x="51" y="64" width="94" height="63" fill="black">
<rect fill="white" x="51" y="64" width="94" height="63"/>
<path d="M69.2336 95.4C61.9536 95.4 57.1536 91.2 57.1536 84.84V71.64C57.1536 70.92 56.7536 70.6 56.3536 70.28C55.9536 69.96 55.5536 69.64 55.5536 69C55.5536 68.24 56.0736 67.8 56.8336 67.8H65.5536C66.3536 67.8 66.9136 68.24 66.9136 69C66.9136 69.64 66.5136 69.96 66.1136 70.28C65.7136 70.6 65.3136 70.92 65.3136 71.64V86.4C65.3136 89.88 67.7136 92.2 71.3536 92.2C75.2336 92.2 77.7936 89.56 77.7936 85.6V73.24C77.7936 71.44 76.8736 70.8 75.9936 70.28C75.3936 69.88 74.9936 69.6 74.9936 69C74.9936 68.24 75.5136 67.8 76.3136 67.8H80.7536C81.5536 67.8 82.1136 68.24 82.1136 69C82.1136 69.6 81.7536 69.92 81.3936 70.24C80.9536 70.64 80.5136 71.08 80.5136 72.04V86.04C80.5136 91.68 75.9936 95.4 69.2336 95.4ZM84.6758 95C83.9558 95 83.4758 94.56 83.4758 93.88C83.4758 93.28 83.8358 93 84.1958 92.72C84.6358 92.36 84.9558 92.04 84.9558 91.4V78.28C84.9558 77.56 84.5958 77.24 84.1958 76.96C83.8358 76.68 83.4758 76.4 83.4758 75.76C83.4758 75.12 83.9558 74.6 84.6758 74.6H90.9558C91.9558 74.6 92.5558 75.2 92.5558 76.2V77.36C94.2358 75.4 96.5958 74.2 99.2358 74.2C102.796 74.2 105.436 76.36 105.436 80.28V91.4C105.436 92.04 105.756 92.36 106.196 92.72C106.556 93 106.916 93.28 106.916 93.88C106.916 94.56 106.436 95 105.716 95H97.5558C96.8358 95 96.3558 94.56 96.3558 93.88C96.3558 93.28 96.7158 93 97.0758 92.72C97.5158 92.36 97.8358 92.04 97.8358 91.4V80.48C97.8358 79 96.8358 78.04 95.4358 78.04C94.2758 78.04 93.2758 78.72 92.5558 79.8V91.4C92.5558 92.04 92.8758 92.36 93.3158 92.72C93.6758 93 94.0358 93.28 94.0358 93.88C94.0358 94.56 93.5558 95 92.8358 95H84.6758ZM113.44 72.68C111 72.68 109.32 71.24 109.32 69.08C109.32 66.92 111 65.48 113.44 65.48C115.88 65.48 117.48 66.92 117.48 69.08C117.48 71.24 115.88 72.68 113.44 72.68ZM109.48 95C108.76 95 108.28 94.56 108.28 93.88C108.28 93.28 108.64 93 109 92.72C109.44 92.36 109.76 92.04 109.76 91.4V78.28C109.76 77.56 109.4 77.24 109 76.96C108.64 76.68 108.28 76.4 108.28 75.76C108.28 75.12 108.76 74.6 109.48 74.6H115.76C116.76 74.6 117.36 75.2 117.36 76.2V91.4C117.36 92.04 117.68 92.36 118.12 92.72C118.48 93 118.84 93.28 118.84 93.88C118.84 94.56 118.36 95 117.64 95H109.48ZM130.915 95.4C124.515 95.4 120.275 91.2 120.275 84.8C120.275 78.4 124.635 74.2 130.955 74.2C135.675 74.2 139.475 76.6 139.475 79.8C139.475 81.64 138.195 82.64 136.235 82.64C133.515 82.64 132.915 80.68 132.355 78.84C131.955 77.48 131.555 76.28 130.315 76.28C128.555 76.28 127.795 78.68 127.795 81.2C127.795 84.6 129.235 90.36 133.835 90.36C135.675 90.36 136.675 89.48 137.435 88.68C137.995 88.12 138.355 87.76 138.875 87.76C139.395 87.76 139.795 88.08 139.795 89.16C139.795 92.76 135.995 95.4 130.915 95.4ZM53.1591 125C52.5191 125 52.0391 124.64 52.0391 124C52.0391 123.36 52.4391 123.08 52.8391 122.8C53.2391 122.48 53.6391 122.16 53.6391 121.56V101.24C53.6391 100.6 53.2391 100.32 52.8391 100C52.4391 99.72 52.0391 99.4 52.0391 98.8C52.0391 98.16 52.5191 97.8 53.1591 97.8H65.0791C71.0791 97.8 75.0391 101.28 75.0391 106.72C75.0391 112.2 71.0391 115.8 64.5591 115.8H58.5191V121.56C58.5191 122.16 58.9991 122.48 59.4791 122.76C59.9591 123.04 60.3591 123.36 60.3591 124C60.3591 124.64 59.9591 125 59.2391 125H53.1591ZM63.4791 99.84H58.5191V112.36C60.1591 113.32 62.2391 113.88 63.8391 113.88C68.1191 113.88 70.1591 111.32 70.1591 107.92C70.1591 104.4 67.9591 99.84 63.4791 99.84ZM83.8975 125.4C79.8975 125.4 77.1775 123.28 77.1775 119.96C77.1775 115.08 82.9375 113.24 90.4575 113.16V110.72C90.4575 107.4 88.5775 105.84 85.8975 105.84C83.2975 105.84 82.7775 107.36 82.4175 108.8C82.0975 110.08 81.8175 111.24 80.0575 111.24C78.6975 111.24 77.9375 110.44 77.9375 109.24C77.9375 106.84 80.8975 104.2 86.2575 104.2C91.3375 104.2 95.0175 106.56 95.0175 111.56V121.76C95.0175 122.48 95.4575 122.84 95.8975 123.12C96.2575 123.4 96.5775 123.64 96.5775 124.12C96.5775 124.96 95.4575 125.4 94.0975 125.4C92.0975 125.4 90.8175 124.4 90.5375 122.8C88.9375 124.44 86.6175 125.4 83.8975 125.4ZM81.6575 119C81.6575 121.32 83.6975 122.88 86.2575 122.88C87.9375 122.88 89.4975 122.2 90.4575 121.08V115.44C89.7375 115.08 88.8975 114.96 87.8575 114.96C84.2175 114.96 81.6575 116.44 81.6575 119ZM100.058 125C99.4581 125 99.0181 124.64 99.0181 124.08C99.0181 123.52 99.3781 123.28 99.7381 123C100.178 122.72 100.498 122.44 100.498 121.8V108.08C100.498 107.32 100.098 107 99.6981 106.72C99.3381 106.44 98.9781 106.16 98.9781 105.56C98.9781 105.04 99.4181 104.6 99.9781 104.6H103.698C104.538 104.6 105.058 105.16 105.058 106.04V108C106.418 105.64 108.418 104.2 110.578 104.2C112.418 104.2 113.738 105.2 113.738 106.84C113.738 108.28 112.738 109.32 111.218 109.32C110.338 109.32 109.738 108.96 109.218 108.48C108.778 108.12 108.378 107.84 107.858 107.84C106.858 107.84 105.778 108.64 105.058 110.64V121.8C105.058 122.44 105.498 122.72 105.978 122.96C106.378 123.2 106.858 123.48 106.858 124.08C106.858 124.64 106.418 125 105.818 125H100.058ZM119.453 101.72C117.773 101.72 116.693 100.64 116.693 99.08C116.693 97.52 117.773 96.48 119.453 96.48C121.133 96.48 122.213 97.52 122.213 99.08C122.213 100.64 121.133 101.72 119.453 101.72ZM116.933 125C116.333 125 115.893 124.64 115.893 124.08C115.893 123.52 116.253 123.28 116.613 123C117.053 122.72 117.373 122.44 117.373 121.8V108.08C117.373 107.32 116.973 107 116.573 106.72C116.213 106.44 115.853 106.16 115.853 105.56C115.853 105.04 116.293 104.6 116.853 104.6H120.573C121.413 104.6 121.933 105.16 121.933 106.04V121.8C121.933 122.44 122.293 122.72 122.693 123C123.053 123.28 123.413 123.52 123.413 124.08C123.413 124.64 123.053 125 122.453 125H116.933ZM134.926 125.4C129.646 125.4 126.166 123 126.166 120.4C126.166 119.24 126.846 118.52 128.086 118.52C129.566 118.52 130.046 119.56 130.566 120.72C131.206 122.2 132.006 123.84 135.046 123.84C137.726 123.84 139.526 122.52 139.526 120.52C139.526 118.08 136.886 117.28 133.926 116.44C130.446 115.36 126.686 114.2 126.686 110.12C126.686 106.4 129.726 104.2 135.006 104.2C139.726 104.2 142.806 106.08 142.806 108.72C142.806 109.88 142.086 110.4 141.086 110.4C139.766 110.4 139.286 109.48 138.846 108.44C138.286 107.16 137.606 105.76 134.926 105.76C132.366 105.76 130.846 106.96 130.846 108.76C130.846 111.2 133.486 112.08 136.446 112.96C139.926 114 143.686 115.28 143.686 119.28C143.686 123.2 140.206 125.4 134.926 125.4Z"/>
</mask>
<path d="M69.2336 95.4C61.9536 95.4 57.1536 91.2 57.1536 84.84V71.64C57.1536 70.92 56.7536 70.6 56.3536 70.28C55.9536 69.96 55.5536 69.64 55.5536 69C55.5536 68.24 56.0736 67.8 56.8336 67.8H65.5536C66.3536 67.8 66.9136 68.24 66.9136 69C66.9136 69.64 66.5136 69.96 66.1136 70.28C65.7136 70.6 65.3136 70.92 65.3136 71.64V86.4C65.3136 89.88 67.7136 92.2 71.3536 92.2C75.2336 92.2 77.7936 89.56 77.7936 85.6V73.24C77.7936 71.44 76.8736 70.8 75.9936 70.28C75.3936 69.88 74.9936 69.6 74.9936 69C74.9936 68.24 75.5136 67.8 76.3136 67.8H80.7536C81.5536 67.8 82.1136 68.24 82.1136 69C82.1136 69.6 81.7536 69.92 81.3936 70.24C80.9536 70.64 80.5136 71.08 80.5136 72.04V86.04C80.5136 91.68 75.9936 95.4 69.2336 95.4ZM84.6758 95C83.9558 95 83.4758 94.56 83.4758 93.88C83.4758 93.28 83.8358 93 84.1958 92.72C84.6358 92.36 84.9558 92.04 84.9558 91.4V78.28C84.9558 77.56 84.5958 77.24 84.1958 76.96C83.8358 76.68 83.4758 76.4 83.4758 75.76C83.4758 75.12 83.9558 74.6 84.6758 74.6H90.9558C91.9558 74.6 92.5558 75.2 92.5558 76.2V77.36C94.2358 75.4 96.5958 74.2 99.2358 74.2C102.796 74.2 105.436 76.36 105.436 80.28V91.4C105.436 92.04 105.756 92.36 106.196 92.72C106.556 93 106.916 93.28 106.916 93.88C106.916 94.56 106.436 95 105.716 95H97.5558C96.8358 95 96.3558 94.56 96.3558 93.88C96.3558 93.28 96.7158 93 97.0758 92.72C97.5158 92.36 97.8358 92.04 97.8358 91.4V80.48C97.8358 79 96.8358 78.04 95.4358 78.04C94.2758 78.04 93.2758 78.72 92.5558 79.8V91.4C92.5558 92.04 92.8758 92.36 93.3158 92.72C93.6758 93 94.0358 93.28 94.0358 93.88C94.0358 94.56 93.5558 95 92.8358 95H84.6758ZM113.44 72.68C111 72.68 109.32 71.24 109.32 69.08C109.32 66.92 111 65.48 113.44 65.48C115.88 65.48 117.48 66.92 117.48 69.08C117.48 71.24 115.88 72.68 113.44 72.68ZM109.48 95C108.76 95 108.28 94.56 108.28 93.88C108.28 93.28 108.64 93 109 92.72C109.44 92.36 109.76 92.04 109.76 91.4V78.28C109.76 77.56 109.4 77.24 109 76.96C108.64 76.68 108.28 76.4 108.28 75.76C108.28 75.12 108.76 74.6 109.48 74.6H115.76C116.76 74.6 117.36 75.2 117.36 76.2V91.4C117.36 92.04 117.68 92.36 118.12 92.72C118.48 93 118.84 93.28 118.84 93.88C118.84 94.56 118.36 95 117.64 95H109.48ZM130.915 95.4C124.515 95.4 120.275 91.2 120.275 84.8C120.275 78.4 124.635 74.2 130.955 74.2C135.675 74.2 139.475 76.6 139.475 79.8C139.475 81.64 138.195 82.64 136.235 82.64C133.515 82.64 132.915 80.68 132.355 78.84C131.955 77.48 131.555 76.28 130.315 76.28C128.555 76.28 127.795 78.68 127.795 81.2C127.795 84.6 129.235 90.36 133.835 90.36C135.675 90.36 136.675 89.48 137.435 88.68C137.995 88.12 138.355 87.76 138.875 87.76C139.395 87.76 139.795 88.08 139.795 89.16C139.795 92.76 135.995 95.4 130.915 95.4ZM53.1591 125C52.5191 125 52.0391 124.64 52.0391 124C52.0391 123.36 52.4391 123.08 52.8391 122.8C53.2391 122.48 53.6391 122.16 53.6391 121.56V101.24C53.6391 100.6 53.2391 100.32 52.8391 100C52.4391 99.72 52.0391 99.4 52.0391 98.8C52.0391 98.16 52.5191 97.8 53.1591 97.8H65.0791C71.0791 97.8 75.0391 101.28 75.0391 106.72C75.0391 112.2 71.0391 115.8 64.5591 115.8H58.5191V121.56C58.5191 122.16 58.9991 122.48 59.4791 122.76C59.9591 123.04 60.3591 123.36 60.3591 124C60.3591 124.64 59.9591 125 59.2391 125H53.1591ZM63.4791 99.84H58.5191V112.36C60.1591 113.32 62.2391 113.88 63.8391 113.88C68.1191 113.88 70.1591 111.32 70.1591 107.92C70.1591 104.4 67.9591 99.84 63.4791 99.84ZM83.8975 125.4C79.8975 125.4 77.1775 123.28 77.1775 119.96C77.1775 115.08 82.9375 113.24 90.4575 113.16V110.72C90.4575 107.4 88.5775 105.84 85.8975 105.84C83.2975 105.84 82.7775 107.36 82.4175 108.8C82.0975 110.08 81.8175 111.24 80.0575 111.24C78.6975 111.24 77.9375 110.44 77.9375 109.24C77.9375 106.84 80.8975 104.2 86.2575 104.2C91.3375 104.2 95.0175 106.56 95.0175 111.56V121.76C95.0175 122.48 95.4575 122.84 95.8975 123.12C96.2575 123.4 96.5775 123.64 96.5775 124.12C96.5775 124.96 95.4575 125.4 94.0975 125.4C92.0975 125.4 90.8175 124.4 90.5375 122.8C88.9375 124.44 86.6175 125.4 83.8975 125.4ZM81.6575 119C81.6575 121.32 83.6975 122.88 86.2575 122.88C87.9375 122.88 89.4975 122.2 90.4575 121.08V115.44C89.7375 115.08 88.8975 114.96 87.8575 114.96C84.2175 114.96 81.6575 116.44 81.6575 119ZM100.058 125C99.4581 125 99.0181 124.64 99.0181 124.08C99.0181 123.52 99.3781 123.28 99.7381 123C100.178 122.72 100.498 122.44 100.498 121.8V108.08C100.498 107.32 100.098 107 99.6981 106.72C99.3381 106.44 98.9781 106.16 98.9781 105.56C98.9781 105.04 99.4181 104.6 99.9781 104.6H103.698C104.538 104.6 105.058 105.16 105.058 106.04V108C106.418 105.64 108.418 104.2 110.578 104.2C112.418 104.2 113.738 105.2 113.738 106.84C113.738 108.28 112.738 109.32 111.218 109.32C110.338 109.32 109.738 108.96 109.218 108.48C108.778 108.12 108.378 107.84 107.858 107.84C106.858 107.84 105.778 108.64 105.058 110.64V121.8C105.058 122.44 105.498 122.72 105.978 122.96C106.378 123.2 106.858 123.48 106.858 124.08C106.858 124.64 106.418 125 105.818 125H100.058ZM119.453 101.72C117.773 101.72 116.693 100.64 116.693 99.08C116.693 97.52 117.773 96.48 119.453 96.48C121.133 96.48 122.213 97.52 122.213 99.08C122.213 100.64 121.133 101.72 119.453 101.72ZM116.933 125C116.333 125 115.893 124.64 115.893 124.08C115.893 123.52 116.253 123.28 116.613 123C117.053 122.72 117.373 122.44 117.373 121.8V108.08C117.373 107.32 116.973 107 116.573 106.72C116.213 106.44 115.853 106.16 115.853 105.56C115.853 105.04 116.293 104.6 116.853 104.6H120.573C121.413 104.6 121.933 105.16 121.933 106.04V121.8C121.933 122.44 122.293 122.72 122.693 123C123.053 123.28 123.413 123.52 123.413 124.08C123.413 124.64 123.053 125 122.453 125H116.933ZM134.926 125.4C129.646 125.4 126.166 123 126.166 120.4C126.166 119.24 126.846 118.52 128.086 118.52C129.566 118.52 130.046 119.56 130.566 120.72C131.206 122.2 132.006 123.84 135.046 123.84C137.726 123.84 139.526 122.52 139.526 120.52C139.526 118.08 136.886 117.28 133.926 116.44C130.446 115.36 126.686 114.2 126.686 110.12C126.686 106.4 129.726 104.2 135.006 104.2C139.726 104.2 142.806 106.08 142.806 108.72C142.806 109.88 142.086 110.4 141.086 110.4C139.766 110.4 139.286 109.48 138.846 108.44C138.286 107.16 137.606 105.76 134.926 105.76C132.366 105.76 130.846 106.96 130.846 108.76C130.846 111.2 133.486 112.08 136.446 112.96C139.926 114 143.686 115.28 143.686 119.28C143.686 123.2 140.206 125.4 134.926 125.4Z" fill="#393424"/>
<path d="M56.3536 70.28L55.7289 71.0609L55.7289 71.0609L56.3536 70.28ZM66.1136 70.28L66.7383 71.0609L66.7383 71.0609L66.1136 70.28ZM75.9936 70.28L75.4389 71.112L75.4615 71.1271L75.4849 71.1409L75.9936 70.28ZM81.3936 70.24L80.7292 69.4925L80.7209 69.5001L81.3936 70.24ZM69.2336 94.4C65.7814 94.4 63.0125 93.4054 61.1218 91.7522C59.2438 90.11 58.1536 87.7518 58.1536 84.84H56.1536C56.1536 88.2882 57.4634 91.21 59.8053 93.2578C62.1347 95.2946 65.4058 96.4 69.2336 96.4V94.4ZM58.1536 84.84V71.64H56.1536V84.84H58.1536ZM58.1536 71.64C58.1536 71.0708 57.988 70.6077 57.7173 70.2288C57.4733 69.8872 57.1599 69.6444 56.9783 69.4991L55.7289 71.0609C55.9473 71.2356 56.0339 71.3128 56.0899 71.3912C56.1192 71.4323 56.1536 71.4892 56.1536 71.64H58.1536ZM56.9783 69.4991C56.7592 69.3239 56.6642 69.2409 56.6036 69.16C56.5808 69.1297 56.5714 69.1094 56.5662 69.0946C56.5613 69.0808 56.5536 69.0529 56.5536 69H54.5536C54.5536 70.1725 55.3618 70.7672 55.7289 71.0609L56.9783 69.4991ZM56.5536 69C56.5536 68.9244 56.5663 68.885 56.5722 68.8707C56.5774 68.8579 56.5808 68.8553 56.5821 68.8542C56.5824 68.8539 56.6418 68.8 56.8336 68.8V66.8C56.2654 66.8 55.6848 66.9661 55.2351 67.3758C54.7735 67.7964 54.5536 68.3799 54.5536 69H56.5536ZM56.8336 68.8H65.5536V66.8H56.8336V68.8ZM65.5536 68.8C65.7785 68.8 65.8679 68.8616 65.8841 68.8754C65.8914 68.8816 65.8945 68.8859 65.8979 68.8937C65.9018 68.9027 65.9136 68.934 65.9136 69H67.9136C67.9136 68.3551 67.6657 67.7668 67.1831 67.3546C66.7193 66.9584 66.1287 66.8 65.5536 66.8V68.8ZM65.9136 69C65.9136 69.0529 65.9058 69.0808 65.901 69.0946C65.8958 69.1094 65.8864 69.1297 65.8636 69.16C65.803 69.2409 65.708 69.3239 65.4889 69.4991L66.7383 71.0609C67.1054 70.7672 67.9136 70.1725 67.9136 69H65.9136ZM65.4889 69.4991C65.3073 69.6444 64.9939 69.8872 64.7499 70.2288C64.4792 70.6077 64.3136 71.0708 64.3136 71.64H66.3136C66.3136 71.4892 66.348 71.4323 66.3773 71.3912C66.4333 71.3128 66.5199 71.2356 66.7383 71.0609L65.4889 69.4991ZM64.3136 71.64V86.4H66.3136V71.64H64.3136ZM64.3136 86.4C64.3136 88.3778 65.001 90.0997 66.2753 91.3256C67.5461 92.5483 69.3191 93.2 71.3536 93.2V91.2C69.7481 91.2 68.5011 90.6917 67.6619 89.8844C66.8262 89.0803 66.3136 87.9022 66.3136 86.4H64.3136ZM71.3536 93.2C73.5275 93.2 75.408 92.4553 76.7449 91.0827C78.0794 89.7127 78.7936 87.7983 78.7936 85.6H76.7936C76.7936 87.3617 76.2278 88.7473 75.3122 89.6873C74.3992 90.6247 73.0597 91.2 71.3536 91.2V93.2ZM78.7936 85.6V73.24H76.7936V85.6H78.7936ZM78.7936 73.24C78.7936 72.154 78.5105 71.3244 78.0215 70.6772C77.5537 70.058 76.9521 69.6848 76.5023 69.4191L75.4849 71.1409C75.9151 71.3952 76.2135 71.602 76.4257 71.8828C76.6167 72.1356 76.7936 72.526 76.7936 73.24H78.7936ZM76.5483 69.4479C76.3958 69.3463 76.2816 69.269 76.1862 69.1971C76.092 69.1261 76.0411 69.0785 76.0128 69.0471C75.9883 69.0197 75.9892 69.0137 75.9936 69.0246C75.9986 69.037 75.9936 69.0348 75.9936 69H73.9936C73.9936 69.5685 74.2 70.0215 74.5244 70.3829C74.7999 70.6899 75.1651 70.9295 75.4389 71.112L76.5483 69.4479ZM75.9936 69C75.9936 68.9243 76.0063 68.8864 76.0115 68.874C76.0157 68.8636 76.0179 68.8624 76.019 68.8615C76.02 68.8606 76.0898 68.8 76.3136 68.8V66.8C75.7374 66.8 75.1472 66.9594 74.6882 67.3685C74.2144 67.7908 73.9936 68.3791 73.9936 69H75.9936ZM76.3136 68.8H80.7536V66.8H76.3136V68.8ZM80.7536 68.8C80.9785 68.8 81.0679 68.8616 81.0841 68.8754C81.0914 68.8816 81.0945 68.8859 81.0979 68.8937C81.1018 68.9027 81.1136 68.934 81.1136 69H83.1136C83.1136 68.3551 82.8657 67.7668 82.3831 67.3546C81.9193 66.9584 81.3287 66.8 80.7536 66.8V68.8ZM81.1136 69C81.1136 69.075 81.0985 69.1094 81.0664 69.1558C81.0113 69.2354 80.9258 69.3179 80.7292 69.4926L82.058 70.9874C82.3913 70.6911 83.1136 70.0977 83.1136 69H81.1136ZM80.7209 69.5001C80.4973 69.7034 80.1756 70.0006 79.9271 70.4223C79.6656 70.866 79.5136 71.3933 79.5136 72.04H81.5136C81.5136 71.7267 81.5816 71.554 81.6501 71.4377C81.7316 71.2994 81.8499 71.1766 82.0663 70.9799L80.7209 69.5001ZM79.5136 72.04V86.04H81.5136V72.04H79.5136ZM79.5136 86.04C79.5136 88.5703 78.5102 90.6249 76.7709 92.0647C75.0145 93.5187 72.4374 94.4 69.2336 94.4V96.4C72.7898 96.4 75.8527 95.4213 78.0463 93.6053C80.257 91.7751 81.5136 89.1497 81.5136 86.04H79.5136ZM84.1958 92.72L84.8097 93.5094L84.8195 93.5018L84.829 93.494L84.1958 92.72ZM84.1958 76.96L83.5818 77.7494L83.6017 77.7648L83.6223 77.7792L84.1958 76.96ZM92.5558 77.36H91.5558V80.0633L93.315 78.0108L92.5558 77.36ZM106.196 92.72L105.563 93.494L105.572 93.5018L105.582 93.5094L106.196 92.72ZM97.0758 92.72L97.6897 93.5094L97.6995 93.5018L97.709 93.494L97.0758 92.72ZM92.5558 79.8L91.7237 79.2453L91.5558 79.4972V79.8H92.5558ZM93.3158 92.72L92.6825 93.494L92.6921 93.5018L92.7018 93.5094L93.3158 92.72ZM84.6758 94C84.5184 94 84.4778 93.9543 84.4862 93.9622C84.4885 93.9643 84.4889 93.9663 84.487 93.9618C84.4847 93.9562 84.4758 93.9317 84.4758 93.88H82.4758C82.4758 94.4663 82.6894 95.023 83.1253 95.4278C83.5538 95.8257 84.1131 96 84.6758 96V94ZM84.4758 93.88C84.4758 93.8325 84.4825 93.8126 84.4837 93.8089C84.4851 93.8051 84.488 93.797 84.5008 93.78C84.5156 93.7602 84.543 93.7293 84.5958 93.6824C84.6515 93.6329 84.7152 93.5829 84.8097 93.5094L83.5818 91.9306C83.2404 92.1962 82.4758 92.7469 82.4758 93.88H84.4758ZM84.829 93.494C85.0545 93.3095 85.3503 93.0577 85.576 92.715C85.8228 92.3402 85.9558 91.9075 85.9558 91.4H83.9558C83.9558 91.5325 83.9288 91.5798 83.9056 91.615C83.8613 91.6823 83.7771 91.7705 83.5625 91.946L84.829 93.494ZM85.9558 91.4V78.28H83.9558V91.4H85.9558ZM85.9558 78.28C85.9558 77.737 85.8149 77.2766 85.5516 76.891C85.3049 76.5299 84.9896 76.295 84.7692 76.1408L83.6223 77.7792C83.802 77.905 83.8666 77.9701 83.9 78.019C83.9166 78.0434 83.9558 78.103 83.9558 78.28H85.9558ZM84.8097 76.1706C84.715 76.097 84.6529 76.0481 84.5988 75.9997C84.5482 75.9543 84.5225 75.9246 84.5086 75.9055C84.4967 75.8893 84.4919 75.8787 84.4883 75.8678C84.4845 75.8562 84.4758 75.8243 84.4758 75.76H82.4758C82.4758 76.2923 82.6334 76.7287 82.893 77.0845C83.1246 77.4019 83.421 77.6242 83.5818 77.7494L84.8097 76.1706ZM84.4758 75.76C84.4758 75.6942 84.4981 75.6619 84.5129 75.6471C84.5246 75.6354 84.5653 75.6 84.6758 75.6V73.6C83.4035 73.6 82.4758 74.5677 82.4758 75.76H84.4758ZM84.6758 75.6H90.9558V73.6H84.6758V75.6ZM90.9558 75.6C91.2553 75.6 91.3775 75.6859 91.4237 75.7321C91.4699 75.7783 91.5558 75.9005 91.5558 76.2H93.5558C93.5558 75.4995 93.3417 74.8217 92.8379 74.3179C92.3341 73.8141 91.6563 73.6 90.9558 73.6V75.6ZM91.5558 76.2V77.36H93.5558V76.2H91.5558ZM93.315 78.0108C94.8229 76.2516 96.914 75.2 99.2358 75.2V73.2C96.2775 73.2 93.6487 74.5484 91.7965 76.7092L93.315 78.0108ZM99.2358 75.2C100.817 75.2 102.105 75.6778 102.989 76.5015C103.862 77.3156 104.436 78.5556 104.436 80.28H106.436C106.436 78.0844 105.689 76.2844 104.353 75.0385C103.026 73.8022 101.215 73.2 99.2358 73.2V75.2ZM104.436 80.28V91.4H106.436V80.28H104.436ZM104.436 91.4C104.436 91.9075 104.569 92.3402 104.816 92.715C105.041 93.0577 105.337 93.3095 105.563 93.494L106.829 91.946C106.614 91.7705 106.53 91.6823 106.486 91.615C106.463 91.5798 106.436 91.5325 106.436 91.4H104.436ZM105.582 93.5094C105.676 93.5829 105.74 93.6329 105.796 93.6824C105.849 93.7293 105.876 93.7602 105.891 93.78C105.904 93.797 105.907 93.8051 105.908 93.8089C105.909 93.8126 105.916 93.8325 105.916 93.88H107.916C107.916 92.7469 107.151 92.1962 106.81 91.9306L105.582 93.5094ZM105.916 93.88C105.916 93.9317 105.907 93.9562 105.905 93.9618C105.903 93.9663 105.903 93.9643 105.905 93.9622C105.914 93.9543 105.873 94 105.716 94V96C106.278 96 106.838 95.8257 107.266 95.4278C107.702 95.023 107.916 94.4663 107.916 93.88H105.916ZM105.716 94H97.5558V96H105.716V94ZM97.5558 94C97.3984 94 97.3578 93.9543 97.3662 93.9622C97.3685 93.9643 97.3689 93.9663 97.367 93.9618C97.3647 93.9562 97.3558 93.9317 97.3558 93.88H95.3558C95.3558 94.4663 95.5694 95.023 96.0053 95.4278C96.4338 95.8257 96.9931 96 97.5558 96V94ZM97.3558 93.88C97.3558 93.8325 97.3625 93.8126 97.3637 93.8089C97.3651 93.8051 97.368 93.797 97.3808 93.78C97.3956 93.7602 97.423 93.7293 97.4758 93.6824C97.5315 93.6329 97.5952 93.5829 97.6897 93.5094L96.4618 91.9306C96.1204 92.1962 95.3558 92.7469 95.3558 93.88H97.3558ZM97.709 93.494C97.9345 93.3095 98.2303 93.0577 98.456 92.715C98.7028 92.3402 98.8358 91.9075 98.8358 91.4H96.8358C96.8358 91.5325 96.8088 91.5798 96.7856 91.615C96.7413 91.6823 96.6571 91.7705 96.4425 91.946L97.709 93.494ZM98.8358 91.4V80.48H96.8358V91.4H98.8358ZM98.8358 80.48C98.8358 79.5085 98.503 78.633 97.8679 77.9979C97.234 77.364 96.3692 77.04 95.4358 77.04V79.04C95.9024 79.04 96.2376 79.196 96.4537 79.4121C96.6686 79.627 96.8358 79.9715 96.8358 80.48H98.8358ZM95.4358 77.04C93.8426 77.04 92.5667 77.9808 91.7237 79.2453L93.3878 80.3547C93.9849 79.4592 94.709 79.04 95.4358 79.04V77.04ZM91.5558 79.8V91.4H93.5558V79.8H91.5558ZM91.5558 91.4C91.5558 91.9075 91.6888 92.3402 91.9356 92.715C92.1613 93.0577 92.4571 93.3095 92.6825 93.494L93.949 91.946C93.7345 91.7705 93.6503 91.6823 93.606 91.615C93.5828 91.5798 93.5558 91.5325 93.5558 91.4H91.5558ZM92.7018 93.5094C92.7964 93.5829 92.8601 93.6329 92.9158 93.6824C92.9685 93.7293 92.9959 93.7602 93.0108 93.78C93.0236 93.797 93.0265 93.8051 93.0278 93.8089C93.0291 93.8126 93.0358 93.8325 93.0358 93.88H95.0358C95.0358 92.7469 94.2711 92.1962 93.9297 91.9306L92.7018 93.5094ZM93.0358 93.88C93.0358 93.9317 93.0269 93.9562 93.0246 93.9618C93.0227 93.9663 93.023 93.9643 93.0253 93.9622C93.0338 93.9543 92.9931 94 92.8358 94V96C93.3984 96 93.9578 95.8257 94.3862 95.4278C94.8221 95.023 95.0358 94.4663 95.0358 93.88H93.0358ZM92.8358 94H84.6758V96H92.8358V94ZM109 92.72L109.614 93.5094L109.624 93.5018L109.634 93.494L109 92.72ZM109 76.96L108.387 77.7494L108.406 77.7648L108.427 77.7792L109 76.96ZM118.12 92.72L117.487 93.494L117.497 93.5018L117.507 93.5094L118.12 92.72ZM113.44 71.68C112.413 71.68 111.631 71.378 111.121 70.9352C110.624 70.503 110.32 69.8827 110.32 69.08H108.32C108.32 70.4373 108.857 71.617 109.81 72.4448C110.75 73.262 112.028 73.68 113.44 73.68V71.68ZM110.32 69.08C110.32 68.2773 110.624 67.657 111.121 67.2248C111.631 66.782 112.413 66.48 113.44 66.48V64.48C112.028 64.48 110.75 64.898 109.81 65.7152C108.857 66.543 108.32 67.7227 108.32 69.08H110.32ZM113.44 66.48C114.467 66.48 115.223 66.7811 115.709 67.2157C116.185 67.6409 116.48 68.2614 116.48 69.08H118.48C118.48 67.7386 117.976 66.5591 117.042 65.7243C116.118 64.8989 114.854 64.48 113.44 64.48V66.48ZM116.48 69.08C116.48 69.8986 116.185 70.5191 115.709 70.9443C115.223 71.3789 114.467 71.68 113.44 71.68V73.68C114.854 73.68 116.118 73.2611 117.042 72.4357C117.976 71.6009 118.48 70.4214 118.48 69.08H116.48ZM109.48 94C109.323 94 109.282 93.9543 109.291 93.9622C109.293 93.9643 109.294 93.9663 109.292 93.9618C109.289 93.9562 109.28 93.9317 109.28 93.88H107.28C107.28 94.4663 107.494 95.023 107.93 95.4278C108.358 95.8257 108.918 96 109.48 96V94ZM109.28 93.88C109.28 93.8325 109.287 93.8126 109.288 93.8089C109.29 93.8051 109.293 93.797 109.305 93.78C109.32 93.7602 109.348 93.7293 109.4 93.6824C109.456 93.6329 109.52 93.5829 109.614 93.5094L108.387 91.9306C108.045 92.1962 107.28 92.7469 107.28 93.88H109.28ZM109.634 93.494C109.859 93.3095 110.155 93.0577 110.381 92.715C110.627 92.3402 110.76 91.9075 110.76 91.4H108.76C108.76 91.5325 108.733 91.5798 108.71 91.615C108.666 91.6823 108.582 91.7705 108.367 91.946L109.634 93.494ZM110.76 91.4V78.28H108.76V91.4H110.76ZM110.76 78.28C110.76 77.737 110.62 77.2766 110.356 76.891C110.11 76.5299 109.794 76.295 109.574 76.1408L108.427 77.7792C108.607 77.905 108.671 77.9701 108.705 78.019C108.721 78.0434 108.76 78.103 108.76 78.28H110.76ZM109.614 76.1706C109.52 76.097 109.458 76.0481 109.404 75.9997C109.353 75.9543 109.327 75.9246 109.313 75.9055C109.301 75.8893 109.297 75.8787 109.293 75.8678C109.289 75.8562 109.28 75.8243 109.28 75.76H107.28C107.28 76.2923 107.438 76.7287 107.698 77.0845C107.929 77.4019 108.226 77.6242 108.387 77.7494L109.614 76.1706ZM109.28 75.76C109.28 75.6942 109.303 75.6619 109.318 75.6471C109.329 75.6354 109.37 75.6 109.48 75.6V73.6C108.208 73.6 107.28 74.5677 107.28 75.76H109.28ZM109.48 75.6H115.76V73.6H109.48V75.6ZM115.76 75.6C116.06 75.6 116.182 75.6859 116.228 75.7321C116.275 75.7783 116.36 75.9005 116.36 76.2H118.36C118.36 75.4995 118.146 74.8217 117.643 74.3179C117.139 73.8141 116.461 73.6 115.76 73.6V75.6ZM116.36 76.2V91.4H118.36V76.2H116.36ZM116.36 91.4C116.36 91.9075 116.493 92.3402 116.74 92.715C116.966 93.0577 117.262 93.3095 117.487 93.494L118.754 91.946C118.539 91.7705 118.455 91.6823 118.411 91.615C118.387 91.5798 118.36 91.5325 118.36 91.4H116.36ZM117.507 93.5094C117.601 93.5829 117.665 93.6329 117.72 93.6824C117.773 93.7293 117.801 93.7602 117.815 93.78C117.828 93.797 117.831 93.8051 117.833 93.8089C117.834 93.8126 117.84 93.8325 117.84 93.88H119.84C119.84 92.7469 119.076 92.1962 118.734 91.9306L117.507 93.5094ZM117.84 93.88C117.84 93.9317 117.832 93.9562 117.829 93.9618C117.827 93.9663 117.828 93.9643 117.83 93.9622C117.838 93.9543 117.798 94 117.64 94V96C118.203 96 118.762 95.8257 119.191 95.4278C119.627 95.023 119.84 94.4663 119.84 93.88H117.84ZM117.64 94H109.48V96H117.64V94ZM132.355 78.84L131.395 79.1222L131.398 79.1312L132.355 78.84ZM137.435 88.68L136.727 87.9729L136.718 87.982L136.71 87.9912L137.435 88.68ZM130.915 94.4C127.937 94.4 125.545 93.4274 123.9 91.791C122.255 90.1552 121.275 87.774 121.275 84.8H119.275C119.275 88.226 120.414 91.1448 122.489 93.209C124.564 95.2726 127.492 96.4 130.915 96.4V94.4ZM121.275 84.8C121.275 81.834 122.28 79.4522 123.946 77.8128C125.614 76.1714 128.02 75.2 130.955 75.2V73.2C127.569 73.2 124.635 74.3286 122.543 76.3872C120.449 78.4478 119.275 81.366 119.275 84.8H121.275ZM130.955 75.2C133.157 75.2 135.09 75.7618 136.44 76.6387C137.79 77.5156 138.475 78.6376 138.475 79.8H140.475C140.475 77.7624 139.259 76.0844 137.529 74.9613C135.799 73.8382 133.472 73.2 130.955 73.2V75.2ZM138.475 79.8C138.475 80.4712 138.252 80.885 137.942 81.1479C137.61 81.43 137.056 81.64 136.235 81.64V83.64C137.373 83.64 138.439 83.35 139.237 82.6721C140.058 81.975 140.475 80.9688 140.475 79.8H138.475ZM136.235 81.64C135.166 81.64 134.634 81.2791 134.274 80.8161C133.848 80.2688 133.604 79.5101 133.311 78.5488L131.398 79.1312C131.665 80.0099 132.001 81.1512 132.695 82.0439C133.455 83.0209 134.583 83.64 136.235 83.64V81.64ZM133.314 78.5578C133.122 77.9055 132.887 77.1193 132.488 76.5056C132.044 75.8215 131.349 75.28 130.315 75.28V77.28C130.52 77.28 130.645 77.3385 130.811 77.5944C131.022 77.9207 131.187 78.4145 131.395 79.1222L133.314 78.5578ZM130.315 75.28C128.871 75.28 127.97 76.2971 127.482 77.3861C126.993 78.4766 126.795 79.8616 126.795 81.2H128.795C128.795 80.0184 128.976 78.9434 129.307 78.2039C129.639 77.4629 129.998 77.28 130.315 77.28V75.28ZM126.795 81.2C126.795 83.009 127.173 85.4626 128.196 87.5032C129.228 89.5618 131.018 91.36 133.835 91.36V89.36C132.051 89.36 130.821 88.2782 129.983 86.6068C129.136 84.9174 128.795 82.791 128.795 81.2H126.795ZM133.835 91.36C136.079 91.36 137.325 90.2472 138.16 89.3687L136.71 87.9912C136.024 88.7128 135.27 89.36 133.835 89.36V91.36ZM138.142 89.3871C138.442 89.087 138.607 88.9258 138.749 88.825C138.809 88.7822 138.842 88.7681 138.854 88.7636C138.862 88.7607 138.865 88.76 138.875 88.76V86.76C138.351 86.76 137.932 86.952 137.59 87.195C137.282 87.4142 136.987 87.713 136.727 87.9729L138.142 89.3871ZM138.875 88.76C138.904 88.76 138.888 88.7647 138.848 88.7476C138.8 88.7274 138.759 88.694 138.736 88.6638C138.718 88.6398 138.734 88.6483 138.754 88.7289C138.775 88.811 138.795 88.9481 138.795 89.16H140.795C140.795 88.5282 140.683 87.9158 140.323 87.4462C139.92 86.9209 139.355 86.76 138.875 86.76V88.76ZM138.795 89.16C138.795 90.5703 138.06 91.8484 136.686 92.8109C135.301 93.781 133.292 94.4 130.915 94.4V96.4C133.617 96.4 136.048 95.699 137.833 94.4491C139.629 93.1916 140.795 91.3497 140.795 89.16H138.795ZM52.8391 122.8L53.4125 123.619L53.4388 123.601L53.4638 123.581L52.8391 122.8ZM52.8391 100L53.4638 99.2191L53.4388 99.1991L53.4125 99.1808L52.8391 100ZM58.5191 115.8V114.8H57.5191V115.8H58.5191ZM59.4791 122.76L59.9829 121.896L59.9829 121.896L59.4791 122.76ZM58.5191 99.84V98.84H57.5191V99.84H58.5191ZM58.5191 112.36H57.5191V112.933L58.0139 113.223L58.5191 112.36ZM53.1591 124C53.0183 124 52.9861 123.961 53.0067 123.978C53.0182 123.988 53.0305 124.003 53.0379 124.02C53.0449 124.036 53.0391 124.033 53.0391 124H51.0391C51.0391 124.591 51.2714 125.128 51.7114 125.502C52.132 125.859 52.6599 126 53.1591 126V124ZM53.0391 124C53.0391 123.947 53.0469 123.926 53.0479 123.923C53.0489 123.92 53.0517 123.912 53.0658 123.895C53.0825 123.874 53.1135 123.842 53.1732 123.794C53.2359 123.743 53.3076 123.693 53.4125 123.619L52.2656 121.981C52.0879 122.105 51.766 122.322 51.5123 122.635C51.2244 122.99 51.0391 123.44 51.0391 124H53.0391ZM53.4638 123.581C53.8112 123.303 54.6391 122.703 54.6391 121.56H52.6391C52.6391 121.595 52.6338 121.611 52.6314 121.618C52.6283 121.626 52.6204 121.644 52.5964 121.675C52.5331 121.758 52.4336 121.844 52.2144 122.019L53.4638 123.581ZM54.6391 121.56V101.24H52.6391V121.56H54.6391ZM54.6391 101.24C54.6391 100.047 53.7905 99.4805 53.4638 99.2191L52.2144 100.781C52.3309 100.874 52.4039 100.93 52.4779 100.994C52.5456 101.053 52.5825 101.092 52.6042 101.12C52.6231 101.144 52.6278 101.155 52.6297 101.161C52.6314 101.165 52.6391 101.187 52.6391 101.24H54.6391ZM53.4125 99.1808C53.2158 99.043 53.1247 98.9647 53.0739 98.9004C53.0544 98.8755 53.0484 98.8616 53.0462 98.8555C53.0444 98.8508 53.0391 98.8356 53.0391 98.8H51.0391C51.0391 99.9566 51.8705 100.543 52.2656 100.819L53.4125 99.1808ZM53.0391 98.8C53.0391 98.7665 53.0449 98.7641 53.0379 98.7799C53.0305 98.7965 53.0182 98.8122 53.0067 98.8219C52.9861 98.8395 53.0183 98.8 53.1591 98.8V96.8C52.6599 96.8 52.132 96.9405 51.7114 97.2981C51.2714 97.672 51.0391 98.2089 51.0391 98.8H53.0391ZM53.1591 98.8H65.0791V96.8H53.1591V98.8ZM65.0791 98.8C67.8899 98.8 70.125 99.6137 71.6439 100.967C73.1509 102.309 74.0391 104.257 74.0391 106.72H76.0391C76.0391 103.743 74.9472 101.231 72.9742 99.4733C71.0131 97.7263 68.2682 96.8 65.0791 96.8V98.8ZM74.0391 106.72C74.0391 109.202 73.142 111.186 71.5703 112.563C69.9849 113.951 67.6195 114.8 64.5591 114.8V116.8C67.9786 116.8 70.8532 115.849 72.8879 114.067C74.9361 112.274 76.0391 109.718 76.0391 106.72H74.0391ZM64.5591 114.8H58.5191V116.8H64.5591V114.8ZM57.5191 115.8V121.56H59.5191V115.8H57.5191ZM57.5191 121.56C57.5191 122.802 58.5645 123.384 58.9752 123.624L59.9829 121.896C59.8691 121.83 59.7778 121.774 59.7 121.72C59.6226 121.665 59.5745 121.623 59.545 121.592C59.5172 121.563 59.5137 121.551 59.5162 121.557C59.5202 121.566 59.5191 121.571 59.5191 121.56H57.5191ZM58.9752 123.624C59.1922 123.75 59.2835 123.828 59.326 123.879C59.3416 123.898 59.3463 123.909 59.3487 123.916C59.3512 123.923 59.3591 123.947 59.3591 124H61.3591C61.3591 123.444 61.1756 122.981 60.8721 122.611C60.5946 122.272 60.2459 122.05 59.9829 121.896L58.9752 123.624ZM59.3591 124C59.3591 124.057 59.3502 124.072 59.3549 124.06C59.3573 124.054 59.3624 124.043 59.3713 124.03C59.3803 124.017 59.391 124.005 59.4023 123.995C59.4262 123.973 59.4382 123.973 59.4171 123.98C59.3936 123.987 59.3378 124 59.2391 124V126C59.7536 126 60.3042 125.871 60.7359 125.485C61.1846 125.084 61.3591 124.535 61.3591 124H59.3591ZM59.2391 124H53.1591V126H59.2391V124ZM63.4791 98.84H58.5191V100.84H63.4791V98.84ZM57.5191 99.84V112.36H59.5191V99.84H57.5191ZM58.0139 113.223C59.796 114.266 62.049 114.88 63.8391 114.88V112.88C62.4291 112.88 60.5222 112.374 59.0242 111.497L58.0139 113.223ZM63.8391 114.88C66.1815 114.88 68.0431 114.175 69.3178 112.875C70.5873 111.582 71.1591 109.817 71.1591 107.92H69.1591C69.1591 109.423 68.7108 110.638 67.8903 111.475C67.075 112.305 65.7766 112.88 63.8391 112.88V114.88ZM71.1591 107.92C71.1591 105.976 70.5576 103.751 69.3173 101.985C68.0598 100.195 66.1083 98.84 63.4791 98.84V100.84C65.3299 100.84 66.7183 101.765 67.6808 103.135C68.6606 104.529 69.1591 106.344 69.1591 107.92H71.1591ZM90.4575 113.16L90.4681 114.16L91.4575 114.149V113.16H90.4575ZM82.4175 108.8L81.4474 108.557L81.4474 108.557L82.4175 108.8ZM95.8975 123.12L96.5114 122.331L96.4742 122.302L96.4344 122.276L95.8975 123.12ZM90.5375 122.8L91.5225 122.628L91.1858 120.703L89.8217 122.102L90.5375 122.8ZM90.4575 121.08L91.2168 121.731L91.4575 121.45V121.08H90.4575ZM90.4575 115.44H91.4575V114.822L90.9047 114.546L90.4575 115.44ZM83.8975 124.4C82.0648 124.4 80.6235 123.914 79.6626 123.144C78.7227 122.392 78.1775 121.32 78.1775 119.96H76.1775C76.1775 121.92 76.9923 123.568 78.4124 124.706C79.8115 125.826 81.7302 126.4 83.8975 126.4V124.4ZM78.1775 119.96C78.1775 118.032 79.2649 116.644 81.4107 115.671C83.6031 114.676 86.759 114.199 90.4681 114.16L90.4469 112.16C86.636 112.201 83.1519 112.684 80.5843 113.849C77.9701 115.036 76.1775 117.008 76.1775 119.96H78.1775ZM91.4575 113.16V110.72H89.4575V113.16H91.4575ZM91.4575 110.72C91.4575 108.873 90.9309 107.369 89.8896 106.328C88.8503 105.289 87.4283 104.84 85.8975 104.84V106.84C87.0467 106.84 87.9047 107.171 88.4754 107.742C89.0441 108.311 89.4575 109.247 89.4575 110.72H91.4575ZM85.8975 104.84C84.3843 104.84 83.3043 105.293 82.5716 106.114C81.8901 106.877 81.626 107.843 81.4474 108.557L83.3876 109.043C83.569 108.317 83.7449 107.803 84.0634 107.446C84.3307 107.147 84.8107 106.84 85.8975 106.84V104.84ZM81.4474 108.557C81.2728 109.256 81.1612 109.649 80.9711 109.909C80.8604 110.06 80.6752 110.24 80.0575 110.24V112.24C81.1998 112.24 82.0346 111.84 82.5839 111.091C83.0538 110.451 83.2422 109.624 83.3876 109.043L81.4474 108.557ZM80.0575 110.24C79.5733 110.24 79.3163 110.101 79.1846 109.973C79.055 109.847 78.9375 109.626 78.9375 109.24H76.9375C76.9375 110.054 77.2 110.833 77.7904 111.407C78.3787 111.979 79.1817 112.24 80.0575 112.24V110.24ZM78.9375 109.24C78.9375 108.465 79.4255 107.481 80.6503 106.647C81.8622 105.821 83.7355 105.2 86.2575 105.2V103.2C83.4195 103.2 81.1328 103.899 79.5247 104.993C77.9295 106.079 76.9375 107.615 76.9375 109.24H78.9375ZM86.2575 105.2C88.6601 105.2 90.605 105.76 91.9268 106.793C93.2126 107.798 94.0175 109.332 94.0175 111.56H96.0175C96.0175 108.788 94.9824 106.642 93.1582 105.217C91.37 103.82 88.9349 103.2 86.2575 103.2V105.2ZM94.0175 111.56V121.76H96.0175V111.56H94.0175ZM94.0175 121.76C94.0175 123.021 94.8543 123.641 95.3606 123.964L96.4344 122.276C96.2392 122.152 96.141 122.068 96.0858 121.996C96.0504 121.95 96.0175 121.893 96.0175 121.76H94.0175ZM95.2836 123.909C95.3808 123.985 95.4458 124.035 95.5034 124.085C95.5583 124.132 95.5833 124.159 95.5941 124.173C95.6024 124.183 95.5946 124.176 95.5863 124.154C95.5774 124.13 95.5775 124.115 95.5775 124.12H97.5775C97.5775 123.078 96.7953 122.551 96.5114 122.331L95.2836 123.909ZM95.5775 124.12C95.5775 124 95.6842 124.045 95.4164 124.173C95.1473 124.301 94.69 124.4 94.0975 124.4V126.4C94.865 126.4 95.6477 126.279 96.2786 125.977C96.9108 125.675 97.5775 125.08 97.5775 124.12H95.5775ZM94.0975 124.4C93.2608 124.4 92.6645 124.192 92.2693 123.898C91.8846 123.611 91.6218 123.195 91.5225 122.628L89.5525 122.972C89.7332 124.005 90.2504 124.889 91.0757 125.502C91.8905 126.108 92.9342 126.4 94.0975 126.4V124.4ZM89.8217 122.102C88.4303 123.528 86.3787 124.4 83.8975 124.4V126.4C86.8563 126.4 89.4447 125.352 91.2533 123.498L89.8217 122.102ZM80.6575 119C80.6575 122.049 83.3408 123.88 86.2575 123.88V121.88C84.0542 121.88 82.6575 120.591 82.6575 119H80.6575ZM86.2575 123.88C88.1925 123.88 90.044 123.099 91.2168 121.731L89.6982 120.429C88.951 121.301 87.6825 121.88 86.2575 121.88V123.88ZM91.4575 121.08V115.44H89.4575V121.08H91.4575ZM90.9047 114.546C89.9825 114.084 88.9616 113.96 87.8575 113.96V115.96C88.8334 115.96 89.4925 116.076 90.0103 116.334L90.9047 114.546ZM87.8575 113.96C85.9205 113.96 84.1654 114.351 82.8594 115.174C81.5171 116.02 80.6575 117.328 80.6575 119H82.6575C82.6575 118.112 83.0779 117.4 83.9256 116.866C84.8096 116.309 86.1545 115.96 87.8575 115.96V113.96ZM99.7381 123L99.2012 122.156L99.1614 122.182L99.1242 122.211L99.7381 123ZM99.6981 106.72L99.0842 107.509L99.104 107.525L99.1247 107.539L99.6981 106.72ZM105.058 108H104.058V111.738L105.925 108.499L105.058 108ZM109.218 108.48L109.896 107.745L109.874 107.725L109.851 107.706L109.218 108.48ZM105.058 110.64L104.117 110.301L104.058 110.465V110.64H105.058ZM105.978 122.96L106.493 122.103L106.46 122.083L106.425 122.066L105.978 122.96ZM100.058 124C99.9535 124 99.9393 123.969 99.9673 123.994C99.9815 124.006 99.9973 124.025 100.008 124.05C100.019 124.074 100.018 124.087 100.018 124.08H98.0181C98.0181 124.642 98.2477 125.151 98.659 125.506C99.057 125.851 99.5628 126 100.058 126V124ZM100.018 124.08C100.018 124.05 100.022 124.05 100.017 124.064C100.012 124.077 100.007 124.08 100.017 124.068C100.03 124.053 100.057 124.024 100.116 123.975C100.182 123.92 100.243 123.874 100.352 123.789L99.1242 122.211C98.8522 122.422 98.0181 122.952 98.0181 124.08H100.018ZM100.275 123.844C100.513 123.692 100.839 123.469 101.091 123.124C101.366 122.748 101.498 122.305 101.498 121.8H99.4981C99.4981 121.876 99.4887 121.913 99.4849 121.926C99.4819 121.936 99.4796 121.94 99.4753 121.946C99.4569 121.971 99.4028 122.028 99.2012 122.156L100.275 123.844ZM101.498 121.8V108.08H99.4981V121.8H101.498ZM101.498 108.08C101.498 107.505 101.341 107.029 101.062 106.639C100.804 106.277 100.477 106.044 100.272 105.901L99.1247 107.539C99.3196 107.676 99.3925 107.743 99.4344 107.801C99.4554 107.831 99.4981 107.895 99.4981 108.08H101.498ZM100.312 105.931C100.218 105.857 100.154 105.807 100.098 105.758C100.045 105.711 100.018 105.68 100.003 105.66C99.9904 105.643 99.9874 105.635 99.9861 105.631C99.9848 105.627 99.9781 105.607 99.9781 105.56H97.9781C97.9781 106.693 98.7428 107.244 99.0842 107.509L100.312 105.931ZM99.9781 105.56C99.9781 105.572 99.9753 105.583 99.9719 105.591C99.9687 105.598 99.9658 105.601 99.9652 105.602C99.9646 105.603 99.9648 105.602 99.9661 105.602C99.9668 105.601 99.9701 105.6 99.9781 105.6V103.6C98.8926 103.6 97.9781 104.461 97.9781 105.56H99.9781ZM99.9781 105.6H103.698V103.6H99.9781V105.6ZM103.698 105.6C103.888 105.6 103.948 105.657 103.964 105.675C103.988 105.7 104.058 105.795 104.058 106.04H106.058C106.058 105.405 105.868 104.78 105.422 104.305C104.969 103.823 104.349 103.6 103.698 103.6V105.6ZM104.058 106.04V108H106.058V106.04H104.058ZM105.925 108.499C107.176 106.328 108.896 105.2 110.578 105.2V103.2C107.94 103.2 105.661 104.952 104.192 107.501L105.925 108.499ZM110.578 105.2C111.326 105.2 111.876 105.404 112.218 105.681C112.538 105.942 112.738 106.314 112.738 106.84H114.738C114.738 105.726 114.278 104.778 113.479 104.129C112.7 103.496 111.67 103.2 110.578 103.2V105.2ZM112.738 106.84C112.738 107.323 112.574 107.68 112.341 107.913C112.109 108.145 111.743 108.32 111.218 108.32V110.32C112.213 110.32 113.107 109.975 113.755 109.327C114.402 108.68 114.738 107.797 114.738 106.84H112.738ZM111.218 108.32C110.668 108.32 110.299 108.117 109.896 107.745L108.54 109.215C109.177 109.803 110.008 110.32 111.218 110.32V108.32ZM109.851 107.706C109.414 107.348 108.767 106.84 107.858 106.84V108.84C107.99 108.84 108.142 108.892 108.585 109.254L109.851 107.706ZM107.858 106.84C106.238 106.84 104.898 108.131 104.117 110.301L105.999 110.979C106.658 109.149 107.479 108.84 107.858 108.84V106.84ZM104.058 110.64V121.8H106.058V110.64H104.058ZM104.058 121.8C104.058 122.386 104.273 122.859 104.611 123.217C104.912 123.535 105.282 123.73 105.531 123.854L106.425 122.066C106.317 122.011 106.237 121.968 106.173 121.927C106.11 121.886 106.079 121.858 106.065 121.843C106.054 121.832 106.057 121.832 106.061 121.841C106.065 121.851 106.058 121.842 106.058 121.8H104.058ZM105.464 123.817C105.571 123.882 105.648 123.928 105.719 123.977C105.788 124.024 105.828 124.058 105.851 124.082C105.872 124.103 105.87 124.107 105.864 124.095C105.857 124.078 105.858 124.069 105.858 124.08H107.858C107.858 122.829 106.786 122.279 106.493 122.103L105.464 123.817ZM105.858 124.08C105.858 124.087 105.857 124.074 105.868 124.05C105.879 124.025 105.895 124.006 105.909 123.994C105.937 123.969 105.923 124 105.818 124V126C106.313 126 106.819 125.851 107.217 125.506C107.629 125.151 107.858 124.642 107.858 124.08H105.858ZM105.818 124H100.058V126H105.818V124ZM116.613 123L116.076 122.156L116.036 122.182L115.999 122.211L116.613 123ZM116.573 106.72L115.959 107.509L115.979 107.525L116 107.539L116.573 106.72ZM122.693 123L123.307 122.211L123.287 122.195L123.267 122.181L122.693 123ZM119.453 100.72C118.831 100.72 118.404 100.524 118.139 100.267C117.876 100.012 117.693 99.6222 117.693 99.08H115.693C115.693 100.098 116.05 101.028 116.747 101.703C117.442 102.376 118.396 102.72 119.453 102.72V100.72ZM117.693 99.08C117.693 98.5394 117.874 98.1641 118.131 97.9208C118.393 97.6729 118.82 97.48 119.453 97.48V95.48C118.406 95.48 117.454 95.8071 116.755 96.4692C116.052 97.1359 115.693 98.0606 115.693 99.08H117.693ZM119.453 97.48C120.086 97.48 120.514 97.6729 120.775 97.9208C121.032 98.1641 121.213 98.5394 121.213 99.08H123.213C123.213 98.0606 122.854 97.1359 122.151 96.4692C121.453 95.8071 120.5 95.48 119.453 95.48V97.48ZM121.213 99.08C121.213 99.6222 121.03 100.012 120.767 100.267C120.502 100.524 120.076 100.72 119.453 100.72V102.72C120.511 102.72 121.464 102.376 122.159 101.703C122.856 101.028 123.213 100.098 123.213 99.08H121.213ZM116.933 124C116.828 124 116.814 123.969 116.842 123.994C116.857 124.006 116.872 124.025 116.883 124.05C116.894 124.074 116.893 124.087 116.893 124.08H114.893C114.893 124.642 115.123 125.151 115.534 125.506C115.932 125.851 116.438 126 116.933 126V124ZM116.893 124.08C116.893 124.05 116.897 124.05 116.892 124.064C116.887 124.077 116.882 124.08 116.892 124.068C116.905 124.053 116.932 124.024 116.991 123.975C117.057 123.92 117.118 123.874 117.227 123.789L115.999 122.211C115.727 122.422 114.893 122.952 114.893 124.08H116.893ZM117.15 123.844C117.388 123.692 117.714 123.469 117.966 123.124C118.241 122.748 118.373 122.305 118.373 121.8H116.373C116.373 121.876 116.364 121.913 116.36 121.926C116.357 121.936 116.355 121.94 116.35 121.946C116.332 121.971 116.278 122.028 116.076 122.156L117.15 123.844ZM118.373 121.8V108.08H116.373V121.8H118.373ZM118.373 108.08C118.373 107.505 118.216 107.029 117.937 106.639C117.679 106.277 117.352 106.044 117.147 105.901L116 107.539C116.195 107.676 116.268 107.743 116.309 107.801C116.33 107.831 116.373 107.895 116.373 108.08H118.373ZM117.187 105.931C117.093 105.857 117.029 105.807 116.973 105.758C116.92 105.711 116.893 105.68 116.878 105.66C116.865 105.643 116.862 105.635 116.861 105.631C116.86 105.627 116.853 105.607 116.853 105.56H114.853C114.853 106.693 115.618 107.244 115.959 107.509L117.187 105.931ZM116.853 105.56C116.853 105.572 116.85 105.583 116.847 105.591C116.844 105.598 116.841 105.601 116.84 105.602C116.84 105.603 116.84 105.602 116.841 105.602C116.842 105.601 116.845 105.6 116.853 105.6V103.6C115.768 103.6 114.853 104.461 114.853 105.56H116.853ZM116.853 105.6H120.573V103.6H116.853V105.6ZM120.573 105.6C120.763 105.6 120.823 105.657 120.839 105.675C120.863 105.7 120.933 105.795 120.933 106.04H122.933C122.933 105.405 122.743 104.78 122.297 104.305C121.844 103.823 121.224 103.6 120.573 103.6V105.6ZM120.933 106.04V121.8H122.933V106.04H120.933ZM120.933 121.8C120.933 122.333 121.091 122.776 121.366 123.138C121.612 123.464 121.926 123.683 122.12 123.819L123.267 122.181C123.169 122.113 123.103 122.064 123.049 122.019C122.998 121.976 122.973 121.948 122.961 121.932C122.951 121.918 122.947 121.911 122.945 121.903C122.942 121.895 122.933 121.865 122.933 121.8H120.933ZM122.079 123.789C122.188 123.874 122.25 123.92 122.316 123.975C122.375 124.024 122.402 124.053 122.414 124.068C122.424 124.08 122.419 124.077 122.414 124.064C122.409 124.05 122.413 124.05 122.413 124.08H124.413C124.413 122.952 123.579 122.422 123.307 122.211L122.079 123.789ZM122.413 124.08C122.413 124.113 122.408 124.117 122.414 124.102C122.42 124.085 122.435 124.058 122.462 124.032C122.488 124.007 122.511 123.996 122.518 123.994C122.522 123.992 122.504 124 122.453 124V126C122.953 126 123.464 125.847 123.854 125.468C124.248 125.086 124.413 124.579 124.413 124.08H122.413ZM122.453 124H116.933V126H122.453V124ZM130.566 120.72L131.484 120.323L131.478 120.311L130.566 120.72ZM133.926 116.44L133.629 117.395L133.641 117.399L133.653 117.402L133.926 116.44ZM138.846 108.44L139.767 108.05L139.762 108.039L138.846 108.44ZM136.446 112.96L136.732 112.002L136.731 112.001L136.446 112.96ZM134.926 124.4C132.427 124.4 130.425 123.831 129.083 123.019C127.723 122.197 127.166 121.221 127.166 120.4H125.166C125.166 122.179 126.349 123.703 128.048 124.731C129.766 125.769 132.144 126.4 134.926 126.4V124.4ZM127.166 120.4C127.166 120.014 127.275 119.825 127.368 119.732C127.46 119.64 127.658 119.52 128.086 119.52V117.52C127.273 117.52 126.512 117.76 125.954 118.318C125.396 118.875 125.166 119.626 125.166 120.4H127.166ZM128.086 119.52C128.543 119.52 128.765 119.66 128.947 119.859C129.189 120.124 129.378 120.515 129.653 121.129L131.478 120.311C131.233 119.765 130.922 119.056 130.424 118.511C129.866 117.9 129.109 117.52 128.086 117.52V119.52ZM129.648 121.117C129.965 121.85 130.396 122.821 131.236 123.578C132.115 124.37 133.33 124.84 135.046 124.84V122.84C133.721 122.84 133.017 122.49 132.575 122.092C132.095 121.659 131.807 121.07 131.483 120.323L129.648 121.117ZM135.046 124.84C136.538 124.84 137.884 124.474 138.885 123.734C139.91 122.977 140.526 121.855 140.526 120.52H138.526C138.526 121.185 138.241 121.723 137.696 122.126C137.127 122.546 136.233 122.84 135.046 122.84V124.84ZM140.526 120.52C140.526 118.833 139.566 117.743 138.345 117.02C137.182 116.331 135.646 115.889 134.199 115.478L133.653 117.402C135.165 117.831 136.429 118.209 137.326 118.74C138.165 119.237 138.526 119.767 138.526 120.52H140.526ZM134.222 115.485C132.443 114.933 130.79 114.413 129.563 113.578C128.41 112.794 127.686 111.771 127.686 110.12H125.686C125.686 112.549 126.841 114.146 128.438 115.232C129.961 116.267 131.928 116.867 133.629 117.395L134.222 115.485ZM127.686 110.12C127.686 108.57 128.3 107.399 129.447 106.579C130.637 105.728 132.485 105.2 135.006 105.2V103.2C132.246 103.2 129.934 103.772 128.284 104.951C126.591 106.161 125.686 107.95 125.686 110.12H127.686ZM135.006 105.2C137.249 105.2 139.008 105.649 140.169 106.332C141.314 107.006 141.806 107.849 141.806 108.72H143.806C143.806 106.951 142.757 105.534 141.183 104.608C139.623 103.691 137.482 103.2 135.006 103.2V105.2ZM141.806 108.72C141.806 109.085 141.7 109.208 141.651 109.252C141.585 109.312 141.424 109.4 141.086 109.4V111.4C141.747 111.4 142.447 111.228 142.99 110.738C143.552 110.232 143.806 109.515 143.806 108.72H141.806ZM141.086 109.4C140.701 109.4 140.514 109.284 140.363 109.123C140.161 108.91 139.989 108.577 139.767 108.05L137.925 108.83C138.142 109.343 138.431 109.99 138.909 110.497C139.437 111.056 140.15 111.4 141.086 111.4V109.4ZM139.762 108.039C139.486 107.409 139.103 106.545 138.344 105.872C137.548 105.165 136.453 104.76 134.926 104.76V106.76C136.078 106.76 136.664 107.055 137.017 107.368C137.408 107.715 137.645 108.191 137.929 108.841L139.762 108.039ZM134.926 104.76C133.503 104.76 132.25 105.092 131.326 105.785C130.373 106.499 129.846 107.546 129.846 108.76H131.846C131.846 108.174 132.078 107.721 132.526 107.385C133.002 107.028 133.788 106.76 134.926 106.76V104.76ZM129.846 108.76C129.846 110.44 130.797 111.548 132.011 112.296C133.174 113.013 134.706 113.486 136.161 113.919L136.731 112.001C135.225 111.554 133.958 111.147 133.06 110.594C132.214 110.072 131.846 109.52 131.846 108.76H129.846ZM136.159 113.918C137.919 114.444 139.577 114.986 140.802 115.833C141.964 116.635 142.686 117.672 142.686 119.28H144.686C144.686 116.888 143.527 115.285 141.939 114.187C140.414 113.134 138.452 112.516 136.732 112.002L136.159 113.918ZM142.686 119.28C142.686 120.897 141.99 122.122 140.723 122.983C139.415 123.872 137.446 124.4 134.926 124.4V126.4C137.685 126.4 140.096 125.828 141.848 124.637C143.642 123.418 144.686 121.583 144.686 119.28H142.686Z" fill="white" mask="url(#path-3-outside-1_623_13)"/>
<defs>
<filter id="filter0_d_623_13" x="6.09131" y="10.0912" width="183.001" height="183.001" filterUnits="userSpaceOnUse" color-interpolation-filters="sRGB">
<feFlood flood-opacity="0" result="BackgroundImageFix"/>
<feColorMatrix in="SourceAlpha" type="matrix" values="0 0 0 0 0 0 0 0 0 0 0 0 0 0 0 0 0 0 127 0" result="hardAlpha"/>
<feOffset dy="4"/>
<feGaussianBlur stdDeviation="2"/>
<feComposite in2="hardAlpha" operator="out"/>
<feColorMatrix type="matrix" values="0 0 0 0 0 0 0 0 0 0 0 0 0 0 0 0 0 0 0.15 0"/>
<feBlend mode="normal" in2="BackgroundImageFix" result="effect1_dropShadow_623_13"/>
<feBlend mode="normal" in="SourceGraphic" in2="effect1_dropShadow_623_13" result="shape"/>
</filter>
</defs>
</svg>
